<?xml version="1.0" standalone="no"?>
<!DOCTYPE svg PUBLIC "-//W3C//DTD SVG 20010904//EN"
 "http://www.w3.org/TR/2001/REC-SVG-20010904/DTD/svg10.dtd">
<svg version="1.0" xmlns="http://www.w3.org/2000/svg"
 width="931.000000pt" height="1000.000000pt" viewBox="0 0 931.000000 1000.000000"
 preserveAspectRatio="xMidYMid meet">
<metadata>
Created by potrace 1.16, written by Peter Selinger 2001-2019
</metadata>
<g transform="translate(0.000000,1000.000000) scale(0.100000,-0.100000)"
fill="#000000" stroke="none">
<path d="M3326 8419 c-9 -13 -16 -30 -16 -39 0 -8 43 -167 96 -353 l97 -338
-55 -117 c-31 -64 -63 -141 -73 -169 -9 -29 -21 -53 -26 -53 -5 0 -92 37 -194
81 -102 45 -189 79 -192 76 -6 -6 16 -17 239 -113 73 -32 136 -60 140 -63 4
-4 2 -23 -4 -44 -8 -28 -17 -37 -32 -36 -12 0 -142 26 -291 58 -148 32 -272
56 -274 55 -11 -9 24 -18 288 -73 156 -33 284 -61 286 -63 4 -4 -11 -77 -17
-83 -1 -2 -82 3 -178 11 -211 16 -200 16 -200 6 0 -5 82 -14 182 -21 101 -7
184 -14 186 -16 2 -2 -8 -68 -22 -147 -29 -161 -53 -337 -62 -464 l-7 -85 -36
34 c-78 75 -174 100 -386 100 -114 1 -167 -3 -220 -17 -90 -24 -179 -70 -215
-114 -66 -80 -60 -209 14 -290 39 -44 91 -63 159 -60 61 3 62 2 89 -33 82
-112 268 -105 341 13 19 30 36 47 44 44 8 -3 37 -1 65 5 100 22 180 138 162
235 l-6 34 1380 0 1380 0 4 -74 c3 -61 8 -80 32 -114 35 -51 112 -92 173 -92
28 0 43 -4 43 -13 0 -23 60 -85 103 -106 24 -12 63 -21 88 -21 59 0 140 40
170 85 22 32 26 33 70 28 93 -11 176 37 216 125 21 45 25 65 20 112 -11 129
-99 210 -277 256 -52 13 -94 15 -210 11 -197 -8 -284 -33 -364 -107 l-45 -41
-5 33 c-8 44 -76 531 -76 541 0 4 89 8 198 9 l197 1 -200 9 c-110 5 -200 10
-202 11 -1 1 -3 20 -5 42 l-3 40 295 34 c162 19 297 36 299 38 17 13 -42 9
-300 -21 -162 -19 -297 -31 -301 -28 -4 4 -9 22 -10 41 l-3 34 205 70 c113 38
207 71 209 73 22 19 -37 4 -212 -56 -114 -38 -208 -70 -211 -70 -2 0 -7 17
-10 38 -12 65 -57 214 -93 304 l-35 87 91 318 c90 315 102 378 79 401 -26 26
-78 8 -340 -117 l-271 -130 -36 18 c-255 129 -752 159 -1077 65 -49 -14 -108
-34 -132 -44 l-43 -19 -292 140 c-160 78 -308 143 -328 146 -30 4 -39 1 -53
-18z m369 -253 l174 -83 -78 -61 c-44 -34 -105 -91 -137 -127 -31 -36 -59 -63
-61 -61 -10 10 -113 391 -109 402 3 8 12 14 21 14 8 0 94 -38 190 -84z m2045
9 c0 -25 -88 -345 -97 -355 -3 -3 -11 4 -19 15 -50 70 -106 134 -157 176 l-58
48 143 70 c160 78 188 84 188 46z m-1521 -693 c122 -73 121 -250 -2 -326 -166
-103 -361 75 -276 252 23 47 78 89 131 102 48 11 97 2 147 -28z m998 17 c58
-18 123 -112 123 -179 0 -58 -52 -144 -104 -172 -35 -19 -95 -26 -139 -16 -88
20 -147 95 -147 189 0 63 22 111 68 149 56 46 114 54 199 29z m-467 -154 c17
-9 30 -24 30 -34 0 -21 -59 -77 -95 -91 -21 -8 -22 -12 -14 -56 11 -58 32 -92
65 -104 29 -11 32 -30 5 -30 -23 0 -81 55 -81 76 0 24 -14 16 -28 -16 -18 -40
-92 -80 -92 -50 0 6 11 15 24 20 34 13 58 52 63 104 5 39 3 45 -18 56 -38 20
-89 72 -89 92 0 9 12 24 28 32 37 21 164 21 202 1z"/>
<path d="M4031 7473 c-84 -42 -114 -167 -59 -250 95 -144 330 -63 315 109 -5
59 -43 119 -90 141 -45 22 -122 21 -166 0z"/>
<path d="M5050 7468 c-59 -41 -75 -72 -75 -148 0 -76 16 -107 75 -147 39 -27
125 -31 169 -8 70 35 110 123 91 195 -12 46 -51 95 -91 115 -44 23 -130 19
-169 -7z"/>
<path d="M3245 3508 c4 -13 23 -63 42 -113 55 -140 116 -237 211 -337 l45 -47
-6 -303 c-9 -429 -27 -549 -91 -599 -107 -84 -92 -290 26 -354 22 -12 39 -30
43 -45 12 -47 55 -101 98 -121 54 -24 81 -24 132 1 l42 20 44 -25 c24 -13 59
-25 77 -25 71 0 149 67 168 143 4 19 19 34 45 48 116 59 135 259 33 349 -19
16 -38 30 -42 30 -13 0 -52 132 -62 211 -5 41 -10 157 -10 258 0 159 2 182 15
177 38 -14 204 -37 339 -46 211 -14 472 7 669 54 l59 14 -5 -247 c-4 -230 -6
-252 -30 -331 -14 -46 -32 -87 -39 -89 -27 -8 -84 -79 -96 -118 -30 -101 4
-212 80 -257 29 -17 48 -40 71 -87 26 -51 41 -67 77 -87 56 -29 115 -26 162
10 l33 25 28 -21 c44 -32 123 -29 170 7 35 27 77 91 77 119 0 7 17 22 37 33
117 63 137 256 37 345 -72 63 -89 172 -100 625 l-7 290 99 100 c111 112 158
189 193 315 12 41 21 80 21 87 0 11 -264 13 -1346 13 l-1345 0 6 -22z m702
-1284 c19 -30 12 -96 -17 -154 -52 -102 -180 -121 -257 -38 -43 46 -67 154
-43 198 9 16 24 18 155 18 143 0 146 0 162 -24z m1583 6 c29 -54 -2 -165 -59
-213 -39 -33 -69 -41 -121 -34 -81 11 -142 90 -143 187 -1 76 2 78 169 78 130
0 145 -2 154 -18z m-1453 -225 c66 -44 50 -155 -23 -155 -59 0 -120 109 -88
158 13 20 22 23 51 19 19 -4 46 -13 60 -22z m1117 9 c21 -20 20 -40 -3 -90
-41 -90 -127 -100 -147 -17 -19 73 100 158 150 107z m-1586 -6 c17 -17 14 -57
-7 -105 -28 -61 -83 -82 -123 -46 -20 18 -24 73 -7 104 24 45 109 75 137 47z
m2065 -26 c53 -54 32 -142 -35 -142 -33 0 -64 28 -84 76 -18 44 -18 69 3 89
24 24 80 13 116 -23z m-1917 -98 c11 -16 17 -47 18 -84 1 -73 -24 -113 -73
-118 -40 -4 -56 9 -72 55 -15 46 0 99 40 142 35 38 65 40 87 5z m172 -8 c57
-51 70 -139 27 -181 -58 -59 -125 -2 -125 105 0 101 38 130 98 76z m1398 -12
c4 -13 4 -52 2 -86 -4 -51 -9 -65 -32 -85 -35 -30 -61 -29 -91 2 -43 42 -30
130 27 181 44 40 82 35 94 -12z m167 16 c69 -81 54 -200 -25 -200 -32 0 -65
28 -74 65 -9 38 0 131 15 149 21 25 57 19 84 -14z"/>
</g>
</svg>
